# xmcd
# 
# Track frame offsets:
#     150
#     26343
#     46058
#     63188
#     77238
#     103277
#     116152
#     134034
#     157437
#     184553
#     220090
# 
# Disc length: 3084
# 
# Revision: 5
# Processed by: cddbd v1.5.2PL0 Copyright (c) Steve Scherf et al.
# Submitted via: fre:ac v1.0.31
# 
DISCID=9d0c0a0b
DTITLE=Joni Mitchell and James Taylor - The Circle Game
DYEAR=2007
DGENRE=Folk/Country
TTITLE0=Songs About the Midway
TTITLE1=Gallery
TTITLE2=Rainy Day Man
TTITLE3=Steam Roller
TTITLE4=Priest
TTITLE5=Carey
TTITLE6=Carolina on My Mind
TTITLE7=California
TTITLE8=He Played Real Good for Free
TTITLE9=The Circle Game
TTITLE10=You Can Close Your Eyes
EXTD=YEAR: 2007
EXTT0=
EXTT1=
EXTT2=
EXTT3=
EXTT4=
EXTT5=
EXTT6=
EXTT7=
EXTT8=
EXTT9=
EXTT10=
PLAYORDER=
